<svg version="1.1" xmlns="http://www.w3.org/2000/svg" xmlns:xlink="http://www.w3.org/1999/xlink" width="16" height="16" fill="currentColor" color="white" x="0px" y="0px" viewBox="0 0 256 256" enable-background="new 0 0 256 256" xml:space="preserve">
<path d="M204.9,10.2c-0.2,0.1-1.2,0.3-2.3,0.5c-3.4,0.6-5,3.6-3.2,6.1c1.1,1.6,2.5,2,5.8,1.4c3.6-0.6,5-1.9,5-4.3C210.3,11.2,207.6,9.3,204.9,10.2z"/>
<path d="M183.8,14.3c-4.2,0.9-5.7,4.7-2.8,7.2c1.1,1,1.5,1.1,3.6,0.8c4.6-0.6,6.5-2,6.5-4.7c0-1.2-0.3-1.9-1.3-2.7C188.4,13.6,187.4,13.5,183.8,14.3z"/>
<path d="M164.6,18c-3.1,0.8-4.4,2-4.4,4.2c0,1.3,0.3,1.9,1.3,2.8c1.4,1.2,3,1.2,7.2,0.1c4.2-1.2,4-6.9-0.3-7.6C167.7,17.5,166,17.7,164.6,18z"/>
<path d="M145.4,21.8c-3.2,0.7-4.4,1.9-4.4,4.2c0,1.9,1.7,3.8,3.4,3.8c2.4,0,6-1.1,7.1-2.1c1.4-1.4,1.4-3.5,0-5C150.2,21.2,148.8,21,145.4,21.8z"/>
<path d="M126.5,25.5c-0.2,0.1-1,0.3-1.7,0.4c-3,0.7-4.2,4.3-2,6.5c1.2,1.3,2.6,1.4,6.2,0.6c3.9-0.8,5.4-3.9,3.2-6.6c-0.8-1-1.3-1.2-3.1-1.2C127.9,25.3,126.8,25.4,126.5,25.5z"/>
<path d="M90.8,26.3c-2.2,1.1-2.3,2-2.3,15.2c0,15.5,0,15.5,5.4,15.5h2.5v4.1v4.2l-16.4,0H63.4l-1,1.1c-1.2,1.2-7.2,17-7.2,18.8c0,1.3,0.7,2.4,2.2,3.1c3.1,1.7,4.6,0.1,7.7-8.2l2.5-6.7l34.6-0.1l34.6-0.1l3.6,14.6c3.8,15.2,4.2,16.1,6.6,16.6c2.1,0.4,3.6,1.3,4.2,2.5c0.5,0.9,0.6,14.5,0.5,65.2l-0.1,64.1l-1.3,1.1l-1.3,1.1h-48.4H51.9l-1.3-1.3l-1.3-1.3v-64c0-47.8,0.1-64.2,0.6-65c1.2-2.2-0.3-2.1,42.2-2.2c25.5,0,40.6-0.2,41.4-0.5c1.4-0.5,2.5-2.8,2.2-4.4c-0.1-0.6-0.7-1.5-1.4-2c-1.2-0.9-1.8-0.9-43-0.8C52.3,97,49.4,97,48,97.8c-2.1,1.1-4.4,3.6-5.5,5.7c-0.9,1.8-0.9,3.5-0.9,68v66.2l1,1.9c1.2,2.3,3.5,4.5,5.6,5.6c1.6,0.8,4.5,0.8,52.2,0.8H151l1.9-1c2.2-1.2,4.6-3.7,5.7-6.1c0.7-1.5,0.7-7.7,0.7-67.2c0-54.6-0.1-65.8-0.6-67.3c-0.8-2.4-3.7-5.4-6-6.5c-1.5-0.6-1.9-1.2-2.3-2.5c-0.2-0.9-1.9-7.7-3.7-15c-2.2-8.9-3.6-13.6-4.2-14.2c-0.6-0.6-1.6-0.8-4.2-0.9c-1.8,0-10.2,0-18.6-0.1l-15.2-0.1v-3.9v-3.9l2.8-0.1c2-0.1,3-0.4,3.8-1.1c1.1-1,1.1-1.1,1.1-14.3c0-7.3-0.1-13.6-0.3-14c-0.7-1.7-2.6-2.1-11.4-2.1C94.5,25.7,91.5,25.9,90.8,26.3z M104.1,41.4v7.8h-3.9h-3.9v-7.8v-7.8h3.9h3.9L104.1,41.4L104.1,41.4z"/>
<path d="M125.1,38.8c-1.6,1.6-1.5,3.6,0.2,5.3c1.2,1.2,1.7,1.3,4.2,1.3c3.6,0,5-0.6,5.8-2.4c0.8-1.8,0.5-3.5-1-4.6c-0.9-0.7-1.8-0.9-4.6-0.9C126.7,37.7,126.1,37.8,125.1,38.8z"/><path d="M145,38.7c-0.9,0.7-1.2,1.3-1.2,2.7c0,2.8,1.2,3.8,4.5,4.1c1.6,0.1,3.4,0.1,4-0.1c3-0.7,4.1-4.4,1.9-6.5c-1-1-1.5-1.2-4.5-1.2C146.9,37.7,146,37.9,145,38.7z"/><path d="M165,38.3c-2.1,1.6-2.3,4.1-0.5,5.9c1.2,1.2,1.6,1.3,4.6,1.3c2.7,0,3.4-0.2,4.4-1.1c1.8-1.6,2-3.6,0.5-5.3c-1.2-1.4-1.3-1.5-4.8-1.5C167.2,37.7,165.4,38,165,38.3z"/><path d="M184.2,38.8c-1.9,1.9-1.4,4.8,1,6.1c1.4,0.8,5.9,0.7,7.5-0.1c2.3-1.2,2.6-4.2,0.7-6c-1-1-1.5-1.2-4.6-1.2S185.2,37.8,184.2,38.8z"/><path d="M204.1,38.6c-1.5,1.2-1.9,2.9-1,4.7c0.9,1.7,2.3,2.3,5.8,2.3c2.5,0,3-0.1,4.2-1.3c1.7-1.7,1.8-3.6,0.2-5.3c-1-1.1-1.4-1.2-4.5-1.2C206,37.7,205,37.9,204.1,38.6z"/><path d="M126.5,49.7c-2.5,1-3.2,4.3-1.4,6.2c1.1,1.1,4.6,2.1,7.1,2.1c1.7,0,3.4-1.9,3.4-3.8c0-2.4-1.2-3.5-4.6-4.2C127.4,49.1,127.7,49.2,126.5,49.7z"/><path d="M144.4,54.5c-2.2,2.8-0.7,5.8,3.2,6.6c1.2,0.3,2.9,0.5,3.7,0.5c1.9,0,3.6-1.8,3.6-3.8c0-2.8-1.8-4-6.4-4.4C145.5,53.3,145.3,53.3,144.4,54.5z"/><path d="M163.7,58.1c-1,1.1-1.3,3.1-0.7,4.7c0.5,1.2,2.7,2.1,5.9,2.4c2.8,0.2,3,0.2,4.2-0.9c2.5-2.5,1-5.9-3-6.7C166.5,56.8,164.9,56.9,163.7,58.1z"/><path d="M183.3,61.8c-2.6,2.3-1.3,5.9,2.4,6.8c4.8,1.1,7.2,0.4,7.7-2.5c0.6-3-1.3-4.6-6.3-5.2C184.9,60.7,184.5,60.8,183.3,61.8z"/><path d="M202.6,65.5c-1.8,1.5-1.9,4.2-0.1,5.6c1.7,1.5,6.5,2.3,8.2,1.4c1.8-0.9,2.6-3,1.8-4.9c-0.7-1.7-2.3-2.5-6-3C204.2,64.4,203.8,64.5,202.6,65.5z"/><path d="M58.4,137.3c-1.4,1.4-1.7,2.7-0.8,4.3c1.2,2.2,0,2.1,36,2.2h34v35.5v35.5H93.8c-18.6,0-34.2,0.1-34.6,0.3c-0.9,0.4-2.1,2.5-2.1,3.9c0,0.6,0.6,1.6,1.3,2.4l1.3,1.3H96c22.8,0,36.6-0.2,37.4-0.5c2.6-1,2.5-0.2,2.5-42.9c0-41.9,0-41.7-2.2-42.9c-0.6-0.4-12.2-0.5-37.5-0.5H59.8L58.4,137.3z"/><path d="M59.6,160c-2.5,1-3.2,4.4-1.3,6.2l1.1,1.2h21.4h21.4l1-1.1c1.2-1.2,1.3-3.8,0.4-5c-1.3-1.8-2.1-1.8-22.8-1.8C69.6,159.5,60.1,159.7,59.6,160z"/><path d="M60,175.5c-1.4,0.3-2.9,2.3-2.9,3.9c0,1.7,1.7,3.5,3.7,3.8c0.9,0.1,8.7,0.2,17.3,0.1l15.7-0.1l1.2-1.1c1.7-1.6,1.7-4.1,0-5.6l-1.2-1.1l-16.4,0C68.4,175.3,60.5,175.4,60,175.5z"/>
<path d="M58.2,192.5c-1.5,1.4-1.5,3.5,0,5.2c1.1,1.3,1.2,1.3,6.7,1.3s5.6,0,6.7-1.3c1.4-1.7,1.4-3.7,0-5.2c-1.1-1.1-1.4-1.2-6.7-1.2C59.6,191.3,59.3,191.4,58.2,192.5z"/>
<path d="M82,192.3c-1.9,1.9-1.5,5.1,0.9,6.3c1.5,0.7,24.7,0.8,26.6,0.1c1.7-0.7,2.4-1.8,2.5-3.7c0-1.1-0.3-1.9-1.1-2.6c-1.1-1-1.3-1-14.5-1C83.6,191.3,82.9,191.4,82,192.3z"/>
</svg>